<svg t="1706347867732" class="icon" viewBox="0 0 1024 1024" version="1.1" xmlns="http://www.w3.org/2000/svg" p-id="1403" width="200" height="200"><path d="M565.1456 90.112l75.52 153.6a164.352 164.352 0 0 0 123.648 90.2144l168.96 24.6272a57.5488 57.5488 0 0 1 31.6928 98.048l-122.1632 119.6032a165.1712 165.1712 0 0 0-47.2064 145.92L824.32 890.88a57.344 57.344 0 0 1-83.0976 60.6208l-150.9888-79.5648a163.84 163.84 0 0 0-152.832 0l-151.04 79.7184A57.2928 57.2928 0 0 1 203.3152 890.88l28.8256-168.96a165.1712 165.1712 0 0 0-47.2064-145.92L62.72 456.6528A57.5488 57.5488 0 0 1 94.464 358.4l168.96-24.6272a164.4544 164.4544 0 0 0 123.5456-90.0096l75.52-153.6a57.1392 57.1392 0 0 1 102.656-0.0512z" fill="#9043F3" p-id="1404"></path><path d="M933.1712 358.4l-168.96-24.6272a164.352 164.352 0 0 1-123.648-90.2144l-75.52-153.6a57.1392 57.1392 0 0 0-102.4 0l-75.52 153.6a164.4544 164.4544 0 0 1-123.8016 90.4192L94.464 358.4a57.5488 57.5488 0 0 0-31.744 98.048l122.2144 119.6032a165.1712 165.1712 0 0 1 47.2064 145.92l-28.8256 168.96a56.7296 56.7296 0 0 0 4.0448 33.2288 689.8688 689.8688 0 0 0 121.6 5.12l108.4416-57.344a163.4816 163.4816 0 0 1 143.36-4.5568 688.2816 688.2816 0 0 0 213.4016-153.6 165.3248 165.3248 0 0 1 48.4352-137.4208l93.952-92.16a680.96 680.96 0 0 0 30.208-107.8784 55.9104 55.9104 0 0 0-33.5872-17.92z" fill="#A158F6" p-id="1405"></path><path d="M232.0384 722.7904a686.08 686.08 0 0 0 542.3616-387.328l-10.24-1.4848a164.352 164.352 0 0 1-123.648-90.2144l-75.52-153.6a57.1392 57.1392 0 0 0-102.4 0l-75.52 153.6a164.4544 164.4544 0 0 1-123.7504 90.2144L94.464 358.4a57.5488 57.5488 0 0 0-31.744 98.048l122.2144 119.6032a165.1712 165.1712 0 0 1 47.2064 145.92z" fill="#BB78FB" p-id="1406"></path><path d="M607.4368 176.1792l-42.2912-86.0672a57.1392 57.1392 0 0 0-102.4 0l-75.52 153.6a164.4544 164.4544 0 0 1-123.904 90.2656L94.464 358.4a57.5488 57.5488 0 0 0-31.744 98.048l73.3184 71.68a673.9968 673.9968 0 0 0 471.3984-351.9488z" fill="#CD8FFF" p-id="1407"></path><path d="M627.712 552.0384c-4.4032 21.1456-8.6528 40.96-12.544 60.4672-2.8672 14.592-2.6624 14.6944-16.896 15.36-6.6048 0.4096-13.2608 0.3584-19.9168 0.5632s-6.5536-4.2496-5.5808-9.0112l15.0528-72.192c8.1408-39.0144 16.2816-78.0288 24.6272-118.2208h62.6688c11.1104 0 22.272 0.3072 33.3312 1.1776 36.1984 2.8672 49.6128 31.4368 43.6224 61.8496-7.8336 39.7312-32.768 59.0848-74.752 59.6992-16.2304 0.512-32.2048 0.3072-49.6128 0.3072z m6.4-32.1024l45.6704-2.6112a34.816 34.816 0 0 0 27.648-16.5376c10.6496-15.6672 4.352-36.4032-11.9808-37.7344s-32.3072 0-49.2032 0c-3.9424 18.2272-7.7824 36.5056-12.1344 56.8832zM491.9296 429.568l-54.4768 99.6864c-16.0256 29.3888-32.3072 58.624-47.7696 88.32a18.3296 18.3296 0 0 1-19.712 11.008c-9.4208-0.512-18.944 0-29.952 0l-35.4816-199.4752c13.1584 0 24.832-0.4096 36.4544 0.4096 2.0992 0 5.12 5.12 5.632 8.3968 3.8912 21.3504 7.2192 42.8032 10.752 64.2048 4.096 24.7808 8.192 49.6128 12.7488 77.1072 8.3968-15.36 15.6672-28.4672 22.8352-41.6768 18.7904-34.4064 37.4272-68.9152 56.32-103.2192a11.8784 11.8784 0 0 1 8.6016-4.5568c10.752-0.5632 21.4528-0.2048 34.048-0.2048zM479.9488 627.5072c13.8752-66.8672 27.4944-132.352 41.216-198.4512h32.9728c6.8096 0 6.912 3.9424 5.888 9.0112l-15.36 73.0112q-11.776 56.6784-23.4496 113.408a25.1392 25.1392 0 0 1-1.1264 3.072z" fill="#FFFFFF" p-id="1408"></path><path d="M342.6304 686.8992m14.6432 0l313.0368 0q14.6432 0 14.6432 14.6432l0 8.704q0 14.6432-14.6432 14.6432l-313.0368 0q-14.6432 0-14.6432-14.6432l0-8.704q0-14.6432 14.6432-14.6432Z" fill="#FFFFFF" p-id="1409"></path></svg>